<svg width="373" height="121" viewBox="0 0 373 121" fill="none" xmlns="http://www.w3.org/2000/svg">
<path d="M53 22L78 0V77H53V22Z" fill="url(#paint0_linear)"/>
<circle cx="39" cy="72" r="39" fill="url(#paint1_linear)"/>
<path d="M39 111C28.6566 111 18.7368 106.891 11.4228 99.5772C4.10892 92.2632 -1.37596e-06 82.3434 -1.70474e-06 72C-2.03353e-06 61.6566 4.10891 51.7368 11.4228 44.4228C18.7367 37.1089 28.6566 33 39 33L39 72L39 111Z" fill="white" fill-opacity="0.2"/>
<path d="M38.5539 52L50.2731 63.7192C52.5908 66.0353 54.1694 68.9868 54.8094 72.2002C55.4495 75.4137 55.1221 78.7448 53.8687 81.7721C52.6153 84.7995 50.4922 87.3871 47.768 89.2077C45.0438 91.0283 41.8408 92 38.5643 92C35.2877 92 32.0847 91.0283 29.3605 89.2077C26.6363 87.3871 24.5132 84.7995 23.2598 81.7721C22.0065 78.7448 21.6791 75.4137 22.3191 72.2002C22.9591 68.9868 24.5378 66.0353 26.8554 63.7192L38.5539 52Z" stroke="white" stroke-width="10" stroke-linecap="round" stroke-linejoin="round"/>
<path d="M87.56 43H91.4V55.48C93 51.56 95.32 48.48 98.36 46.24C101.48 44 105 42.88 108.92 42.88C111.4 42.88 113.92 43.4 116.48 44.44V48.88C114.16 47.12 111.56 46.24 108.68 46.24C105.8 46.24 103 47.12 100.28 48.88C97.64 50.64 95.48 53 93.8 55.96C92.2 58.92 91.4 62.08 91.4 65.44V97H87.56V43ZM149.758 98.32C142.158 98.32 136.278 96.24 132.118 92.08C128.038 87.92 125.998 82.04 125.998 74.44V43H129.838V74.44C129.838 81 131.558 86.08 134.998 89.68C138.518 93.2 143.438 94.96 149.758 94.96C153.598 94.96 157.118 94.12 160.318 92.44C163.518 90.68 166.038 88.24 167.878 85.12C169.718 82 170.638 78.44 170.638 74.44V43H174.478V97H170.638V86.92C168.798 90.28 166.038 93.04 162.358 95.2C158.678 97.28 154.478 98.32 149.758 98.32ZM189.63 43H193.47V56.2C195.63 51.88 198.99 48.4 203.55 45.76C208.11 43.04 212.91 41.68 217.95 41.68C223.15 41.68 227.91 42.96 232.23 45.52C236.63 48.08 240.11 51.52 242.67 55.84C245.23 60.16 246.51 64.88 246.51 70C246.51 75.12 245.23 79.84 242.67 84.16C240.11 88.48 236.63 91.92 232.23 94.48C227.91 97.04 223.15 98.32 217.95 98.32C213.07 98.32 208.35 97 203.79 94.36C199.31 91.72 195.87 88.24 193.47 83.92V121H189.63V43ZM218.19 94.96C222.59 94.96 226.67 93.84 230.43 91.6C234.19 89.28 237.15 86.24 239.31 82.48C241.55 78.64 242.67 74.48 242.67 70C242.67 65.6 241.55 61.48 239.31 57.64C237.07 53.8 234.07 50.76 230.31 48.52C226.55 46.2 222.47 45.04 218.07 45.04C213.67 45.04 209.55 46.2 205.71 48.52C201.95 50.84 198.91 53.92 196.59 57.76C194.35 61.6 193.23 65.72 193.23 70.12C193.23 74.52 194.35 78.64 196.59 82.48C198.91 86.24 201.99 89.28 205.83 91.6C209.67 93.84 213.79 94.96 218.19 94.96ZM283.977 98.32C278.857 98.32 274.097 97.04 269.697 94.48C265.297 91.92 261.817 88.48 259.257 84.16C256.697 79.76 255.417 75.04 255.417 70C255.417 64.96 256.697 60.28 259.257 55.96C261.817 51.56 265.297 48.08 269.697 45.52C274.097 42.96 278.857 41.68 283.977 41.68C289.177 41.68 294.097 43.08 298.737 45.88C303.377 48.6 306.617 52.16 308.457 56.56V43H312.297V97H308.457V83.56C306.297 88.04 302.937 91.64 298.377 94.36C293.897 97 289.097 98.32 283.977 98.32ZM284.217 94.96C288.617 94.96 292.697 93.84 296.457 91.6C300.217 89.28 303.177 86.24 305.337 82.48C307.577 78.64 308.697 74.48 308.697 70C308.697 65.6 307.577 61.48 305.337 57.64C303.097 53.8 300.097 50.76 296.337 48.52C292.577 46.2 288.497 45.04 284.097 45.04C279.697 45.04 275.577 46.2 271.737 48.52C267.977 50.84 264.937 53.92 262.617 57.76C260.377 61.6 259.257 65.72 259.257 70.12C259.257 74.52 260.377 78.64 262.617 82.48C264.937 86.24 268.017 89.28 271.857 91.6C275.697 93.84 279.817 94.96 284.217 94.96ZM327.443 43H331.283V55.48C332.883 51.56 335.203 48.48 338.243 46.24C341.363 44 344.883 42.88 348.803 42.88C351.283 42.88 353.803 43.4 356.363 44.44V48.88C354.043 47.12 351.443 46.24 348.563 46.24C345.683 46.24 342.883 47.12 340.163 48.88C337.523 50.64 335.363 53 333.683 55.96C332.083 58.92 331.283 62.08 331.283 65.44V97H327.443V43Z" fill="#191E2B"/>
<rect x="359" y="83" width="14" height="14" fill="#F15B07"/>
<defs>
<linearGradient id="paint0_linear" x1="65.5" y1="0" x2="65.5" y2="77" gradientUnits="userSpaceOnUse">
<stop stop-color="#F15B07"/>
<stop offset="1" stop-color="#BF3416"/>
</linearGradient>
<linearGradient id="paint1_linear" x1="39" y1="33" x2="39" y2="111" gradientUnits="userSpaceOnUse">
<stop stop-color="#F15B07"/>
<stop offset="1" stop-color="#F13107"/>
</linearGradient>
</defs>
</svg>
